<?xml version="1.0" encoding="utf-8"?>
<!-- Generator: Adobe Illustrator 16.0.0, SVG Export Plug-In . SVG Version: 6.00 Build 0)  -->
<!DOCTYPE svg PUBLIC "-//W3C//DTD SVG 1.1//EN" "http://www.w3.org/Graphics/SVG/1.1/DTD/svg11.dtd">
<svg version="1.1" id="Layer_1" xmlns="http://www.w3.org/2000/svg" xmlns:xlink="http://www.w3.org/1999/xlink" x="0px" y="0px"
	 width="81.092px" height="65.895px" viewBox="0 0 81.092 65.895" enable-background="new 0 0 81.092 65.895" xml:space="preserve">
<path fill="none" stroke="#000000" stroke-width="2" stroke-miterlimit="10" d="M66.83,6.405c-0.829-0.338-1.302-1.075-2.102-1.791
	C59.117-0.415,48.702-0.302,43.65,5.621c-2.923,3.427-3.516,7.946-3.86,12.263c-0.464,5.808-16.613-2.17-18.766-3.491
	c-4.96-3.043-9.137-7.169-13.282-11.209c-1.299-1.264-2.089,7.438-2.068,8.305c0.053,2.263,0.376,4.736,1.244,6.838
	c0.484,1.172,1.09,2.212,2,3.105c0.338,0.331,2.969,1.755,2.982,1.982c0.204,3.386-5.528,1.817-7.203,1.494
	c-0.236,0.13,2.142,5.568,2.359,6.013c1.32,2.707,3.706,4.777,6.534,5.792c1.477,0.53,5.584,0.593,4.604,3.15
	c-1.054,2.745-5.847,0.776-7.656,0.209c0.299,2.977,3.256,4.794,5.652,6.042c2.201,1.146,6.537,2.005,7.937,4.124
	c1.735,2.628-4.178,4.026-5.818,4.484c-5.182,1.445-10.604,1.498-15.942,1.524c8.552,8.741,22.232,9.713,33.675,7.863
	c12.768-2.062,24.332-10.267,30.527-21.645c1.659-3.045,3.08-6.503,3.914-9.876c0.693-2.804,1.136-5.695,1.011-8.597
	c-0.029-0.687-0.88-5.534-0.437-5.774c3.252-1.765,6.715-4.883,8.164-8.321c-1.55,0.646-5.787,2.424-7.27,0.899
	c-1.029-1.058,0.018-2.249,0.822-3.088c1.17-1.22,2.78-2.505,3.398-4.099c-2.798,0.996-5.375,3.223-8.554,2.975
	C67.318,6.562,67.061,6.499,66.83,6.405z"/>
</svg>
