<?xml version="1.0" encoding="utf-8"?>
<!-- Generator: Adobe Illustrator 16.0.0, SVG Export Plug-In . SVG Version: 6.00 Build 0)  -->
<!DOCTYPE svg PUBLIC "-//W3C//DTD SVG 1.1//EN" "http://www.w3.org/Graphics/SVG/1.1/DTD/svg11.dtd">
<svg version="1.1" id="Layer_1" xmlns="http://www.w3.org/2000/svg" xmlns:xlink="http://www.w3.org/1999/xlink" x="0px" y="0px"
	 width="93.659px" height="74.81px" viewBox="0 0 93.659 74.81" enable-background="new 0 0 93.659 74.81" xml:space="preserve">
<polygon fill="none" stroke="#000000" stroke-width="2" stroke-miterlimit="10" points="1.106,32.727 31.188,32.81 31.105,73.809 
	5.271,73.809 "/>
<path fill="none" stroke="#000000" stroke-width="2" stroke-miterlimit="10" d="M31.605,34.727
	c6.01-1.946,11.875-6.139,14.734-11.884c2.713-5.454,0.992-11.333,1.266-17.117c0.067-1.423,0.326-3.662,3.5-4.5
	c0.986-0.261,3.084-0.304,4.081-0.083c9.295,2.059,10.929,19.572,5.002,25.5c6.771-0.004,13.541,0.004,20.312,0.067
	c3.406,0.032,8.345-0.417,10.938,2.329c1.588,1.684,1.471,4.333,0.542,6.277c-0.488,1.022-1.206,1.822-2.193,2.381
	c-1.312,0.744-2.903,0.79-4.202,1.464c0.56,1.086,1.547,1.957,2.004,3.203c1.36,3.709-1.789,6.398-4.939,7.486
	c0.932,1.049,1.707,2.088,2.222,3.436c1.694,4.434-2.098,5.879-4.987,8.029c2.809,2.538,3.821,7.104-0.226,9.135
	c-1.387,0.694-2.751,0.758-4.248,0.674c-2.831-0.158-5.72-0.007-8.562-0.01c-7.249-0.007-14.502,0.049-21.752,0.1
	c-2.407,0.019-4.042,0.557-6.113-0.828c-2.239-1.497-4.927-1.813-7.501-1.035"/>
<circle cx="22.439" cy="64.726" r="3.666"/>
<path fill="none" stroke="#000000" stroke-width="2" stroke-miterlimit="10" d="M33.355,69.351c0,0,1.25,3.875-2.25,4.458"/>
</svg>
